<?xml version="1.0" encoding="UTF-8"?><svg id="Lag_1" xmlns="http://www.w3.org/2000/svg" viewBox="0 0 24.03 50.94"><defs><style>.cls-1{fill:#3a3a3a;}</style></defs><path id="Icon_awesome-guitar" class="cls-1" d="M9.34,0h5.33c1.48,0,2.67,1.2,2.67,2.67V10.68c0,1.48-1.19,2.67-2.67,2.67v6.39c4.39,.97,7.63,4.22,7.63,8.12,0,1.12-.27,2.22-.79,3.21-.75,1.49-.57,3.27,.46,4.58,1.3,1.51,2.02,3.44,2.04,5.44,0,5.45-5.38,9.85-12.01,9.85-6.63,0-12.01-4.41-12.01-9.85,.02-2,.75-3.93,2.05-5.44,1.03-1.31,1.21-3.09,.46-4.58-.52-.99-.79-2.09-.79-3.21,0-3.9,3.24-7.15,7.63-8.12v-6.39c-1.48,0-2.67-1.2-2.67-2.67V2.66C6.68,1.19,7.87,0,9.34,0Zm-.16,34.92c1.56,1.56,4.09,1.56,5.66,0s1.56-4.09,0-5.66-4.09-1.56-5.66,0c-1.56,1.56-1.56,4.09,0,5.66Z"/></svg>